<?xml version="1.0" encoding="UTF-8"?>
<svg width="206px" height="52px" viewBox="0 0 206 52" version="1.1" xmlns="http://www.w3.org/2000/svg" xmlns:xlink="http://www.w3.org/1999/xlink">
    <title>Group 17</title>
    <defs>
        <polygon id="path-1" points="0 52 205.263158 52 205.263158 0 0 0"></polygon>
    </defs>
    <g id="SUPPLY" stroke="none" stroke-width="1" fill="none" fill-rule="evenodd">
        <g id="Immutable-–-Desktop-–-Home" transform="translate(-617.000000, -67.000000)">
            <g id="Module-–-Site-Nav-(Immutable)" transform="translate(0.000000, 48.000000)">
                <g id="Group-17" transform="translate(617.000000, 19.000000)">
                    <polygon id="Fill-1" fill="#fff" points="65.6842105 36.4912281 69.3333333 36.4912281 69.3333333 15.5087719 65.6842105 15.5087719"></polygon>
                    <g id="Group-16">
                        <path d="M91.2610958,21.2845256 C89.2281764,21.2845256 87.3583551,22.1316459 86.2457062,23.8997912 C85.4144863,22.1759888 83.7525305,21.2845256 81.6010382,21.2845256 C79.7757422,21.2845256 78.0840222,22.0870606 77.0601819,23.7362311 L77.0601819,21.5815993 L73.1129159,21.5815993 L73.1129159,36.7975359 L77.0601819,36.7975359 L77.0601819,28.3425685 C77.0601819,26.2177409 78.4995111,24.6279366 80.3248071,24.6279366 L80.5621948,24.6279366 C82.1796253,24.6279366 82.9365556,25.6531556 82.9365556,27.6740317 L82.9365556,36.7975359 L86.8835797,36.7975359 L86.8835797,28.3425685 C86.8835797,26.2177409 88.3081478,24.6279366 90.1334438,24.6279366 L90.3708315,24.6279366 C91.988262,24.6279366 92.7154281,25.6531556 92.7154281,27.6740317 L92.7154281,36.7975359 L96.6626942,36.7975359 L96.6626942,27.2133979 C96.6626942,25.4154483 96.2324441,23.9739385 95.371702,22.8893532 C94.4961988,21.8195489 93.1309171,21.2845256 91.2610958,21.2845256" id="Fill-2" fill="#fff"></path>
                        <path d="M117.512448,21.2845256 C115.479528,21.2845256 113.609707,22.1316459 112.497058,23.8997912 C111.665838,22.1759888 110.003882,21.2845256 107.85239,21.2845256 C106.027094,21.2845256 104.335374,22.0870606 103.311534,23.7362311 L103.311534,21.5815993 L99.3642677,21.5815993 L99.3642677,36.7975359 L103.311534,36.7975359 L103.311534,28.3425685 C103.311534,26.2177409 104.750863,24.6279366 106.576159,24.6279366 L106.813547,24.6279366 C108.430977,24.6279366 109.187908,25.6531556 109.187908,27.6740317 L109.187908,36.7975359 L113.134932,36.7975359 L113.134932,28.3425685 C113.134932,26.2177409 114.5595,24.6279366 116.384796,24.6279366 L116.622183,24.6279366 C118.239614,24.6279366 118.96678,25.6531556 118.96678,27.6740317 L118.96678,36.7975359 L122.914046,36.7975359 L122.914046,27.2133979 C122.914046,25.4154483 122.483796,23.9739385 121.623054,22.8893532 C120.747551,21.8195489 119.382269,21.2845256 117.512448,21.2845256" id="Fill-4" fill="#fff"></path>
                        <path d="M147.415311,31.7750531 L147.415311,24.7763765 L150.813512,24.7763765 L150.813512,21.5817446 L147.415311,21.5817446 L147.415311,16.648287 L143.468045,16.648287 L143.468045,21.5817446 L138.985749,21.5817446 L135.160444,21.5817446 L135.038725,21.5817446 L135.038725,30.036712 C135.038725,32.1615396 133.628918,33.900123 131.907434,33.900123 L131.670046,33.900123 C130.230717,33.900123 129.4145,32.8303187 129.4145,30.8688089 L129.4145,21.5817446 L125.467234,21.5817446 L125.467234,31.3146617 C125.467234,33.0825648 125.897484,34.4794893 126.758226,35.5197316 C127.603965,36.5747549 128.894957,37.0947549 130.601681,37.0947549 C132.486263,37.0947549 134.103693,36.1289021 135.038725,34.5686598 L135.038725,36.797439 L138.985749,36.797439 L138.985749,24.7763765 L143.468045,24.7763765 L143.468045,32.8450997 C143.468045,35.4157801 144.848088,36.797439 147.415311,36.797439 L151.273526,36.797439 L151.273526,33.4542703 L149.09227,33.4542703 C147.697224,33.4542703 147.415311,33.1719776 147.415311,31.7750531" id="Fill-6" fill="#fff"></path>
                        <path d="M161.528287,30.5863467 C161.528287,32.5032712 159.940379,33.8999534 158.144847,33.8999534 L157.90746,33.8999534 C156.824333,33.8999534 156.022877,33.2907829 156.022877,32.3547344 C156.022877,31.7751258 156.245262,31.3442964 156.690757,31.0321994 C157.13601,30.7201025 157.655311,30.5417614 158.233898,30.4971761 L161.528287,30.1555172 L161.528287,30.5863467 Z M165.356981,26.75274 C165.356981,23.2460112 162.804518,21.2845014 158.975825,21.2845014 C155.236425,21.2845014 152.758494,23.409329 152.431814,26.2921062 L156.394083,26.2921062 C156.482892,25.3708388 157.417923,24.4793756 158.842491,24.4793756 L159.09464,24.4793756 C160.548972,24.4793756 161.528287,25.5341566 161.528287,26.9012768 L161.528287,27.27274 L157.699836,27.6146412 C156.067645,27.748397 154.731885,28.2238117 153.693284,29.0559087 C152.65444,29.8880056 152.13514,31.0767847 152.13514,32.6220037 C152.090614,35.2968779 154.390686,37.1243896 157.121007,37.0945853 C159.065118,37.0945853 160.667787,36.2627307 161.617338,34.9401957 C161.647102,35.7424884 161.706389,36.3666822 161.795197,36.7975116 L165.505076,36.7975116 C165.401264,36.0843896 165.356981,34.9697577 165.356981,33.4541007 L165.356981,26.75274 Z" id="Fill-8" fill="#fff"></path>
                        <path d="M175.745221,33.9000261 L175.507833,33.9000261 C173.69754,33.9446114 172.00582,31.9833439 172.035342,29.1897372 C172.00582,26.3961305 173.69754,24.4346207 175.507833,24.4794483 L175.745221,24.4794483 C177.733857,24.4794483 179.217711,26.3069599 179.217711,29.1599329 C179.217711,32.0129059 177.718854,33.9000261 175.745221,33.9000261 M176.4131,21.2845741 C174.380181,21.2845741 172.688461,22.4435489 172.035342,23.5579385 L172.035342,15.4894576 L168.088318,15.4894576 L168.088318,36.7975843 L172.035342,36.7975843 L172.035342,34.8212936 C172.688461,35.9356831 174.380181,37.094658 176.4131,37.094658 C180.672044,37.1690475 183.209503,33.3502218 183.164735,29.1897372 C183.209503,25.0290103 180.672044,21.2101845 176.4131,21.2845741" id="Fill-10" fill="#fff"></path>
                        <mask id="mask-2" fill="white">
                            <use xlink:href="#path-1"></use>
                        </mask>
                        <g id="Clip-13"></g>
                        <polygon id="Fill-12" fill="#fff" mask="url(#mask-2)" points="185.139167 36.7973905 189.086433 36.7973905 189.086433 15.4892637 185.139167 15.4892637"></polygon>
                        <path d="M194.934277,27.3916179 C195.023569,25.5936682 196.403612,24.4792787 198.065568,24.4792787 L198.302714,24.4792787 C199.964911,24.4792787 201.344954,25.5936682 201.433763,27.3916179 L194.934277,27.3916179 Z M198.332478,21.2844045 C193.880914,21.2250382 191.0613,24.6425965 191.105826,29.1895676 C191.031778,34.0483933 194.518788,37.1540969 198.332478,37.0947307 C202.057117,37.0947307 204.461242,35.0144884 205.20317,31.9831743 L201.285668,31.9831743 C201.003755,33.0975638 200.039201,33.9000988 198.614633,33.9000988 L198.362242,33.9000988 C196.715289,33.9000988 195.082856,32.4736123 194.934277,30.437713 L205.20317,30.437713 C205.247453,29.7839571 205.262456,29.3085424 205.262456,29.0112265 C205.306981,24.5684492 202.769522,21.2400615 198.332478,21.2844045 L198.332478,21.2844045 Z" id="Fill-14" fill="#fff" mask="url(#mask-2)"></path>
                        <path d="M40.4089262,28.0463914 C40.4019086,29.0309021 39.8726865,29.7210047 39.0315452,30.2051426 C35.7686139,32.0837819 32.5110063,33.9713868 29.2509788,35.8553569 C28.6554527,36.199439 28.0589587,36.5420671 27.4193912,36.9103802 C27.4094698,36.7492432 27.3971286,36.6406878 27.3968866,36.5321323 C27.3954347,35.5958416 27.406082,34.6593085 27.389627,33.72326 C27.3850293,33.4572022 27.473596,33.3149655 27.7034821,33.1829059 C30.6682874,31.4796999 33.6222033,29.757109 36.5916063,28.0621417 C37.1201024,27.7604641 37.3519245,27.391424 37.3475687,26.7706226 C37.3245801,23.5386747 37.3369214,20.3062423 37.3369214,17.0738099 L37.3369214,16.5084977 C38.1115167,16.9766431 38.836263,17.3604641 39.499545,17.8310326 C40.1042666,18.2599236 40.4089262,18.9100447 40.411588,19.6578173 C40.4219934,22.4540895 40.428527,25.2503616 40.4089262,28.0463914 M40.3881154,34.027603 C40.3186656,34.8926542 39.8119482,35.5069133 39.0642132,35.9375005 C36.2007999,37.5861864 33.3419842,39.242384 30.4812327,40.8954315 C29.5832248,41.4144623 28.684975,41.933493 27.7862411,42.4513122 C27.6780737,42.5135862 27.5657924,42.5683486 27.4189073,42.6458882 C27.4097118,42.4966244 27.3973706,42.3875843 27.3971286,42.278302 C27.3954347,41.3291687 27.4017263,40.3800354 27.3917422,39.4309021 C27.389627,39.2164567 27.4435898,39.0836701 27.6410499,38.9697838 C31.8131204,36.5660559 35.9810771,34.1548164 40.1502438,31.7457577 C40.2138859,31.7089264 40.2826098,31.6810606 40.4011827,31.6238751 C40.4011827,32.4663914 40.4503057,33.25148 40.3881154,34.027603 M21.5974642,16.7292432 C21.0963124,16.4341081 20.6684822,16.4370158 20.1673304,16.7302125 C17.3600577,18.372356 14.5404436,19.9936608 11.7247014,21.6215079 C11.6054026,21.6903243 11.482716,21.7538099 11.2724307,21.8686654 C11.3469622,20.7969226 11.1182859,19.7862423 11.482716,18.808274 C11.682112,18.273493 12.0540435,17.870287 12.5469678,17.5850867 C14.8961622,16.2252358 17.2441467,14.8627195 19.5986647,13.5115918 C20.4581969,13.0180037 21.3339421,13.029877 22.1929903,13.5254035 C24.8662032,15.0669879 27.5377221,16.6112377 30.2053693,18.1627568 C30.3193444,18.22915 30.4609059,18.3755061 30.4628418,18.4867269 C30.4822006,19.5873048 30.4744571,20.6883672 30.4744571,21.8696347 C29.5043376,21.3089264 28.6082656,20.7915918 27.7124356,20.2735303 C25.6727405,19.0944436 23.6274798,17.9248071 21.5974642,16.7292432 M24.3248818,36.9258882 C24.0666834,36.7785629 23.8796286,36.6731575 23.6935419,36.5655713 C21.3322482,35.2013588 18.9733744,33.8325424 16.6062731,32.4782647 C16.3507365,32.332151 16.2553943,32.1761025 16.2587821,31.8780596 C16.275479,30.3391407 16.2694294,28.8002218 16.2631378,27.2615452 C16.2621698,27.0533998 16.2953219,26.9092246 16.5010095,26.7943691 C17.3726409,26.3073234 18.232899,25.7996813 19.0979969,25.3007623 C19.1606711,25.2644157 19.228427,25.2375191 19.3433701,25.1827568 L19.3433701,26.9106785 C19.3433701,27.8469692 19.3581312,28.78326 19.3375625,29.7190662 C19.3259472,30.2528779 19.5304248,30.6124678 19.9957628,30.8751333 C21.3337001,31.6306598 22.6542145,32.4167176 23.9936038,33.1693364 C24.2571259,33.3173886 24.3367391,33.4816757 24.3316574,33.7726915 C24.3139925,34.7962144 24.3248818,35.8204641 24.3248818,36.9258882 M24.3251238,42.658246 C24.1688012,42.5773141 24.0507123,42.5215825 23.9377051,42.4564007 C20.2222611,40.3107344 16.5133507,38.1534371 12.7882273,36.0247325 C11.7433343,35.4274352 11.267349,34.577165 11.2770284,33.383055 C11.2975971,30.8433905 11.2925154,28.3032414 11.2796902,25.7633346 C11.2736406,24.616233 11.7401885,23.7863169 12.7449119,23.2139776 C15.3602902,21.7244902 17.9618754,20.2107717 20.5634606,18.6970531 C20.788265,18.566205 20.9528151,18.5448816 21.186815,18.6856645 C22.0853068,19.2265033 22.9990437,19.742384 23.9546441,20.2948537 C23.7729131,20.4031668 23.6344974,20.4874911 23.4943879,20.5684231 C20.6781616,22.1969972 17.8648392,23.8304175 15.0420794,25.447603 C14.5791613,25.7126915 14.3647622,26.0560466 14.368876,26.593493 C14.3833951,28.5944995 14.384847,30.5957484 14.36815,32.5967549 C14.3635523,33.1501938 14.5823071,33.4996067 15.0585344,33.7722069 C18.0371328,35.4775937 21.004116,37.2040615 23.9807785,38.9128406 C24.2326854,39.0575005 24.3401269,39.2072488 24.3333513,39.5098956 C24.3113306,40.5351146 24.3251238,41.5613029 24.3251238,42.658246 M24.8410367,10.5054781 C25.5616692,10.1517036 26.3227134,10.1756925 27.0210833,10.5740522 C29.4452931,11.957165 31.8627274,13.3523933 34.2697563,14.7648257 C35.0445936,15.219644 35.4399977,15.9506971 35.4441115,16.8465219 C35.4586306,19.9880876 35.452581,23.1298956 35.4443535,26.2714613 C35.4441115,26.388013 35.368854,26.556904 35.2756896,26.6123933 C34.3430779,27.1684977 33.3990928,27.7059441 32.3771884,28.2957297 L32.3771884,27.801657 C32.3771884,24.5701938 32.3679929,21.3387307 32.3851739,18.1075098 C32.3883197,17.4869506 32.1741626,17.0868947 31.6243718,16.7740708 C28.8091135,15.1723933 26.0105522,13.5411538 23.2066672,11.9196067 C23.0854325,11.8495788 22.9668597,11.7747046 22.7836767,11.6634837 C23.5035833,11.2542199 24.1540401,10.8427754 24.8410367,10.5054781 M25.9650589,7.2693383e-05 C11.6250034,7.2693383e-05 2.41985412e-05,11.6407064 2.41985412e-05,26.0000727 C2.41985412e-05,40.359439 11.6250034,52.0000727 25.9650589,52.0000727 C40.3051144,52.0000727 51.9300936,40.359439 51.9300936,26.0000727 C51.9300936,11.6407064 40.3051144,7.2693383e-05 25.9650589,7.2693383e-05" id="Fill-15" fill="#fff" mask="url(#mask-2)"></path>
                    </g>
                </g>
            </g>
        </g>
    </g>
</svg>